<svg width="100" height="100" viewBox="0 0 100 100" xmlns="http://www.w3.org/2000/svg">
  <defs>
    <style>
      .cls-1 { fill: #4285f4; }
      .cls-2 { fill: #34a853; }
      .cls-3 { fill: #fbbc04; }
      .cls-4 { fill: #ea4335; }
    </style>
  </defs>
  <path class="cls-1" d="M30 30 h40 c10 0 18 8 18 18 v4 h-8 c-10 0-18-8-18-18 v-4 z"/>
  <path class="cls-2" d="M30 30 v40 c0 10 8 18 18 18 h4 v-8 c0-10-8-18-18-18 h-4 z"/>
  <path class="cls-3" d="M70 70 h-40 c-10 0-18-8-18-18 v-4 h8 c10 0 18 8 18 18 v4 z"/>
  <path class="cls-4" d="M70 70 v-40 c0-10-8-18-18-18 h-4 v8 c0 10 8 18 18 18 h4 z"/>
  <circle cx="50" cy="50" r="15" fill="white"/>
</svg>